<?xml version="1.0" standalone="no"?>
<!DOCTYPE svg PUBLIC "-//W3C//DTD SVG 20010904//EN"
 "http://www.w3.org/TR/2001/REC-SVG-20010904/DTD/svg10.dtd">
<svg version="1.0" xmlns="http://www.w3.org/2000/svg"
 width="962.000000pt" height="962.000000pt" viewBox="0 0 962.000000 962.000000"
 preserveAspectRatio="xMidYMid meet">
<metadata>
Created by potrace 1.14, written by Peter Selinger 2001-2017
</metadata>
<g transform="translate(0.000000,962.000000) scale(0.100000,-0.100000)"
fill="#000000" stroke="none">
<path d="M2274 8282 c-21 -3 -21 -4 -21 -417 l0 -414 41 -7 c23 -3 48 -8 56
-9 46 -10 219 -44 245 -49 52 -9 89 -16 135 -26 25 -5 59 -12 75 -15 33 -5 56
-10 130 -25 l50 -10 0 -2467 0 -2466 -43 -12 c-23 -7 -45 -13 -47 -13 -6 0
-83 -13 -110 -18 -11 -2 -31 -6 -45 -9 -14 -2 -47 -9 -75 -15 -27 -6 -63 -12
-80 -15 -16 -2 -43 -8 -60 -12 -38 -9 -32 -8 -90 -18 -27 -5 -52 -9 -55 -10
-3 -1 -25 -5 -50 -9 -25 -4 -52 -9 -61 -12 -14 -4 -16 -48 -15 -417 l1 -412
1423 -1 1422 0 1 20 c5 96 3 229 -4 233 -4 2 -4 9 0 16 9 15 10 218 0 224 -4
2 -4 9 0 16 9 15 10 218 0 224 -4 2 -3 12 3 22 10 20 -1 76 -16 76 -5 1 -25 4
-44 8 -19 3 -48 9 -65 12 -16 2 -41 7 -55 11 -14 3 -38 6 -55 7 -16 1 -32 5
-35 8 -3 4 -25 10 -50 13 -46 7 -59 9 -120 21 -31 7 -53 10 -100 19 -8 1 -28
6 -45 9 -16 4 -43 9 -60 12 -64 11 -76 14 -91 29 -8 9 -11 16 -7 16 12 0 11
231 -1 249 -6 9 -5 12 1 8 11 -7 12 102 0 120 -4 6 -4 14 1 17 11 7 9 317 -2
335 -6 9 -5 12 1 8 11 -7 12 102 0 120 -4 6 -4 14 1 17 11 7 9 317 -2 335 -6
9 -5 12 1 8 11 -7 12 102 1 119 -4 6 -4 14 0 18 12 12 10 230 -2 238 -8 6 -8
8 0 8 7 0 10 41 10 121 -1 66 2 125 5 130 6 11 138 18 145 8 2 -4 22 -3 44 1
22 4 43 3 46 -1 3 -5 11 -6 17 -2 13 8 155 8 163 0 3 -3 18 -2 32 2 15 4 39 4
55 0 15 -4 27 -4 27 -1 0 8 125 6 146 -2 8 -3 14 -2 14 2 0 8 124 6 146 -2 8
-3 14 -2 14 2 0 8 124 6 146 -2 8 -3 14 -2 14 2 0 4 27 7 60 7 33 0 60 -3 60
-7 0 -4 11 -3 25 2 13 5 27 5 29 1 3 -5 24 -5 46 -1 22 4 43 3 46 -1 3 -5 10
-6 16 -3 13 8 126 10 133 2 3 -3 24 -2 45 2 22 4 43 3 46 -1 3 -5 11 -6 17 -2
13 8 155 8 163 0 3 -3 18 -2 32 2 15 4 39 4 55 0 15 -4 27 -4 27 -1 0 8 125 6
146 -2 8 -3 14 -2 14 2 0 4 27 7 60 7 33 0 60 -3 60 -7 0 -4 11 -3 25 2 13 5
27 5 29 1 3 -5 24 -5 46 -1 22 4 43 3 46 -1 3 -5 10 -6 17 -2 6 3 43 6 82 6
l70 -1 0 531 0 532 -1203 0 c-1061 0 -1202 2 -1203 15 -1 8 -2 51 -3 95 0 44
-5 86 -10 94 -6 9 -5 12 1 8 11 -7 12 102 1 119 -4 6 -4 14 0 18 11 12 10 160
-2 175 -8 11 -8 13 0 8 12 -7 14 100 1 120 -4 6 -4 14 1 17 11 7 9 317 -2 335
-6 9 -5 12 1 8 11 -7 12 102 0 120 -4 6 -4 14 1 17 11 7 9 317 -2 335 -6 9 -5
12 1 8 11 -7 12 102 1 119 -4 6 -4 14 0 18 4 4 8 62 8 129 1 67 2 125 3 128 2
11 49 17 62 8 7 -4 18 -5 23 -1 13 7 103 5 116 -3 6 -3 10 -3 10 2 0 4 28 7
62 5 64 -3 78 -3 101 -1 6 1 35 0 62 0 28 -1 65 0 83 2 17 2 32 -1 32 -5 0 -5
8 -5 18 0 14 6 96 8 112 2 3 -1 10 -1 15 0 25 6 102 5 117 -2 9 -5 20 -4 23 2
4 6 10 8 14 5 10 -5 103 -7 149 -2 17 2 32 -1 32 -6 0 -4 5 -5 12 -1 14 9 103
8 118 -1 5 -3 10 -3 10 2 0 4 28 7 62 5 64 -3 78 -3 101 -1 6 1 35 0 62 0 28
-1 65 0 83 2 17 2 32 -1 32 -5 0 -5 8 -5 18 0 14 6 96 8 112 2 3 -1 10 -1 15
0 25 6 102 5 117 -2 9 -5 20 -4 23 2 4 6 10 8 14 5 10 -5 103 -7 149 -2 17 2
32 -1 32 -6 0 -4 5 -5 12 -1 14 9 103 8 117 0 5 -4 12 -3 15 2 6 11 87 5 99
-7 6 -6 12 -28 13 -48 1 -21 5 -78 9 -128 4 -49 8 -121 10 -160 2 -38 4 -70 5
-70 3 0 7 -46 14 -160 13 -189 17 -239 20 -242 3 -3 716 -5 996 -3 l65 0 -3
942 -2 943 -2718 0 c-1494 0 -2726 -1 -2738 -3z"/>
</g>
</svg>
